<?xml version="1.0"?>
<svg xmlns="http://www.w3.org/2000/svg" xmlns:xlink="http://www.w3.org/1999/xlink" version="1.1" id="Capa_1" x="0px" y="0px" viewBox="0 0 115.783 115.783" style="enable-background:new 0 0 115.783 115.783;" xml:space="preserve" width="512px" height="512px" class=""><g><g>
	<g>
		<rect x="38.594" y="22.327" width="38.598" height="25.084" data-original="#010002" class="active-path" data-old_color="#ffffff" fill="#ffffff"/>
		<polygon points="52.101,49.626 48.243,53.488 67.536,53.488 63.682,49.626   " data-original="#010002" class="active-path" data-old_color="#ffffff" fill="#ffffff"/>
		<rect x="0" y="62.292" width="38.594" height="25.088" data-original="#010002" class="active-path" data-old_color="#ffffff" fill="#ffffff"/>
		<polygon points="13.507,89.595 9.649,93.456 28.946,93.456 25.084,89.595   " data-original="#010002" class="active-path" data-old_color="#ffffff" fill="#ffffff"/>
		<rect x="77.192" y="62.292" width="38.591" height="25.088" data-original="#010002" class="active-path" data-old_color="#ffffff" fill="#ffffff"/>
		<polygon points="90.699,89.595 86.837,93.456 106.134,93.456 102.276,89.595   " data-original="#010002" class="active-path" data-old_color="#ffffff" fill="#ffffff"/>
		<path d="M33.799,43.002c0.458,0,0.916-0.175,1.267-0.523l0.39-0.39c0.698-0.698,0.698-1.832,0-2.53    c-0.698-0.698-1.832-0.698-2.53,0l-0.39,0.39c-0.698,0.698-0.698,1.832,0,2.53C32.882,42.826,33.341,43.002,33.799,43.002z" data-original="#010002" class="active-path" data-old_color="#ffffff" fill="#ffffff"/>
		<path d="M29.547,47.253c0.458,0,0.916-0.175,1.267-0.523l0.723-0.723c0.698-0.698,0.698-1.832,0-2.53    c-0.698-0.698-1.832-0.698-2.53,0l-0.723,0.723c-0.698,0.698-0.698,1.832,0,2.53C28.631,47.078,29.089,47.253,29.547,47.253z" data-original="#010002" class="active-path" data-old_color="#ffffff" fill="#ffffff"/>
		<path d="M25.292,51.509c0.458,0,0.916-0.175,1.267-0.523l0.727-0.727c0.698-0.698,0.698-1.832,0-2.53    c-0.698-0.698-1.832-0.698-2.53,0l-0.727,0.727c-0.698,0.698-0.698,1.832,0,2.53C24.376,51.333,24.834,51.509,25.292,51.509z" data-original="#010002" class="active-path" data-old_color="#ffffff" fill="#ffffff"/>
		<path d="M21.036,55.764c0.458,0,0.916-0.175,1.267-0.523l0.727-0.727c0.698-0.698,0.698-1.832,0-2.53    c-0.698-0.698-1.832-0.698-2.53,0l-0.727,0.727c-0.698,0.698-0.698,1.832,0,2.53C20.12,55.589,20.578,55.764,21.036,55.764z" data-original="#010002" class="active-path" data-old_color="#ffffff" fill="#ffffff"/>
		<path d="M17.118,59.679c0.458,0,0.916-0.175,1.267-0.523l0.39-0.39c0.698-0.698,0.698-1.832,0-2.53    c-0.698-0.698-1.832-0.698-2.53,0l-0.39,0.39c-0.698,0.698-0.698,1.832,0,2.53C16.205,59.507,16.66,59.679,17.118,59.679z" data-original="#010002" class="active-path" data-old_color="#ffffff" fill="#ffffff"/>
		<path d="M80.717,42.476c0.354,0.351,0.809,0.523,1.267,0.523c0.455,0,0.916-0.175,1.267-0.523    c0.698-0.698,0.698-1.832,0-2.53l-0.39-0.39c-0.694-0.698-1.832-0.698-2.53,0c-0.694,0.698-0.694,1.832,0,2.53L80.717,42.476z" data-original="#010002" class="active-path" data-old_color="#ffffff" fill="#ffffff"/>
		<path d="M92.757,54.515l0.727,0.727c0.351,0.351,0.809,0.523,1.267,0.523c0.458,0,0.916-0.175,1.267-0.523    c0.698-0.698,0.698-1.832,0-2.53l-0.727-0.726c-0.698-0.698-1.836-0.698-2.53,0C92.062,52.682,92.055,53.813,92.757,54.515z" data-original="#010002" class="active-path" data-old_color="#ffffff" fill="#ffffff"/>
		<path d="M88.501,50.26l0.727,0.727c0.351,0.351,0.812,0.523,1.267,0.523c0.462,0,0.92-0.175,1.267-0.523    c0.698-0.698,0.698-1.832,0-2.53l-0.723-0.727c-0.698-0.698-1.836-0.698-2.53,0C87.807,48.427,87.8,49.562,88.501,50.26z" data-original="#010002" class="active-path" data-old_color="#ffffff" fill="#ffffff"/>
		<path d="M84.25,46.008l0.719,0.723c0.354,0.351,0.812,0.523,1.267,0.523c0.455,0,0.916-0.175,1.267-0.523    c0.698-0.698,0.698-1.832,0-2.53l-0.723-0.723c-0.698-0.698-1.836-0.698-2.53,0S83.548,45.306,84.25,46.008z" data-original="#010002" class="active-path" data-old_color="#ffffff" fill="#ffffff"/>
		<path d="M97.008,58.767l0.39,0.39c0.351,0.351,0.812,0.523,1.267,0.523c0.462,0,0.916-0.175,1.267-0.523    c0.694-0.698,0.694-1.832,0-2.53l-0.387-0.39c-0.698-0.698-1.836-0.698-2.53,0C96.314,56.934,96.307,58.069,97.008,58.767z" data-original="#010002" class="active-path" data-old_color="#ffffff" fill="#ffffff"/>
	</g>
</g></g> </svg>
